<svg width="20" height="22" viewBox="0 0 20 22" fill="none" xmlns="http://www.w3.org/2000/svg">
<path d="M12.3171 21.9998V16.403C12.3171 16.3216 12.2656 16.2674 12.1884 16.2674L7.61137 16.2675C7.53424 16.2675 7.48276 16.3218 7.48276 16.4031V22L1.92855 21.9998C0.874228 21.9998 0 21.078 0 19.9664V9.74697C0 9.04209 0.282863 8.36427 0.745613 7.84912L0.771262 7.82208L8.46019 0.610074C9.25728 -0.203358 10.5688 -0.203358 11.3659 0.610074L19.0544 7.84919C19.543 8.33713 19.8 9.0422 19.8 9.74704V19.9664C19.8 21.1052 18.9514 21.9999 17.8715 21.9999L12.3171 21.9998Z" fill="white"/>
</svg>
